<?xml version="1.0" encoding="UTF-8" standalone="no"?>
<svg
   xmlns:dc="http://purl.org/dc/elements/1.1/"
   xmlns:cc="http://creativecommons.org/ns#"
   xmlns:rdf="http://www.w3.org/1999/02/22-rdf-syntax-ns#"
   xmlns:svg="http://www.w3.org/2000/svg"
   xmlns="http://www.w3.org/2000/svg"
   viewBox="0 0 1496 1496"
   height="1496"
   width="1496"
   xml:space="preserve"
   id="svg2"
   version="1.1"><metadata
     id="metadata8"><rdf:RDF><cc:Work
         rdf:about=""><dc:format>image/svg+xml</dc:format><dc:type
           rdf:resource="http://purl.org/dc/dcmitype/StillImage" /></cc:Work></rdf:RDF></metadata><defs
     id="defs6" /><g
     transform="matrix(1.3333333,0,0,-1.3333333,0,1496)"
     id="g10"><g
       transform="scale(0.1)"
       id="g12"><path
         id="path14"
         style="fill:#ffffff;fill-opacity:1;fill-rule:nonzero;stroke:none"
         d="M 0,0 H 11220 V 11220 H 0 Z" /><path
         id="path16"
         style="fill:#ebebeb;fill-opacity:1;fill-rule:nonzero;stroke:none"
         d="m 7546.55,648.699 c -820.94,0 -1641.17,27.403 -2461.89,54.903 -820.64,27.398 -1641.89,54.796 -2464.56,54.796 -48.15,0 -96.17,-0.097 -144.33,-0.296 C 2144.02,756.699 1807,735 1475.52,720.301 1354.94,715 1212.7,699.199 1075.51,699.199 c -91.912,0 -181.553,7.102 -260.924,29.102 C 689.598,762.902 698.914,883.602 794.059,946.199 967.73,1060.4 1229.4,1073.4 1427.02,1086.3 c 516.87,33.9 1033.56,71.2 1550.01,112.1 1032.9,81.65 2064.87,177.31 3095.58,286.93 165.97,17.65 331.8,36.8 497.63,55.93 548.17,63.21 1096.46,102.82 1645.72,141.45 217.56,15.3 435.91,26.59 654.1,26.59 172.93,0 345.75,-7.09 518.04,-24.9 335.08,-34.65 739.7,-104.21 998.4,-363.9 145.2,-145.6 83.4,-329.598 -130,-453.602 C 10031,735.801 9744.78,732 9495.47,713.699 c -650.41,-47.801 -1299.89,-65 -1948.92,-65 M 5909.08,1114.6 c -60.77,0 -121.54,-0.8 -182.26,-2.7 -36.34,-1.2 -433.37,-11.5 -396.03,-79.5 31.45,-57.4 228.56,-71.9 295.98,-71.9 2.72,0 5.22,0 7.5,0.102 96.43,1.898 193.45,4.699 288.3,20.398 48.69,8.102 96.71,19.5 142.45,35.9 11.16,4 30.92,10.9 49.12,19.6 19.71,9.4 37.59,20.9 40.72,32.9 3.42,13.2 -7.42,26.5 -20.76,33.9 -19.41,10.7 -51.67,13.3 -84.47,13.3 -15.15,0 -30.41,-0.6 -44.57,-1.1 -14.17,-0.6 -27.25,-1.1 -38,-1.1 -0.82,0 -1.61,0 -2.4,0 -18.52,0.2 -37.06,0.2 -55.58,0.2" /><path
         id="path18"
         style="fill:#ebceb1;fill-opacity:1;fill-rule:nonzero;stroke:none"
         d="m 7743.49,6778.94 25.92,204.15 87.2,-8.64 13.02,-144.23 42.84,15.19 -43.33,-171.67 -91.67,-3.33 -33.98,108.53" /><path
         id="path20"
         style="fill:#d1d9db;fill-opacity:1;fill-rule:nonzero;stroke:none"
         d="m 8276.54,5505.76 c 131.52,-11.75 282.26,-5.63 369.46,93.52 70.91,80.63 76.93,200.75 53.51,305.53 -2.72,12.12 -6.5,25.25 -16.78,32.21 -9.48,6.41 -21.89,5.78 -33.31,4.9 -117.07,-9.03 -234.14,-18.07 -351.21,-27.09 -65.63,-5.07 -197.11,-41.65 -232.89,9.64 -40.28,57.75 -40.57,200.72 -54.38,269.08 -35.91,177.7 -71.82,355.38 -107.73,533.07 l -181.42,-15.99 c 1.76,-163.61 3.53,-327.23 5.3,-490.83 1.26,-116.98 2.52,-233.96 3.78,-350.95 3.35,-311.28 290.84,-340.33 545.67,-363.09" /><path
         id="path22"
         style="fill:#d1d9db;fill-opacity:1;fill-rule:nonzero;stroke:none"
         d="m 9042.18,5857.97 c 107.3,-81.62 153.04,-227.99 179.62,-363.53 109.44,-557.89 53.63,-1133.39 -4.02,-1698.97 -6.45,-63.3 -21.68,-90.66 -82.68,-63.47 -382.86,170.65 -759.47,390.99 -1177.78,417.76 104.87,355.05 115.98,730.46 187.06,1093.78 20.63,105.43 46.58,210.64 91.7,308.13 58.82,127.09 152.84,264.5 256.92,359.23 98.01,89.21 253.77,49.66 371.38,19.88 48.75,-12.35 98.15,-24.94 142.07,-49.43 12.62,-7.03 24.5,-14.85 35.73,-23.38" /><path
         id="path24"
         style="fill:#ebceb1;fill-opacity:1;fill-rule:nonzero;stroke:none"
         d="m 3943.28,5602.9 106.53,-30.06 85.26,48.21 19.39,-12.54 -14.89,-24.28 82.22,20.15 61.61,-29.28 14.95,-88.67 -45.05,-82.09 -91.03,-6.04 -96.91,47.14 -147.68,34.91 25.6,122.55" /><path
         id="path26"
         style="fill:#d1d9db;fill-opacity:1;fill-rule:nonzero;stroke:none"
         d="m 3991.46,5658.61 -1067.59,261.65 c -36.82,9.02 -80.9,49.65 -112.82,69.22 -75.87,46.56 -151.74,93.11 -227.62,139.67 -51.88,31.83 -142.92,113.4 -205.86,113.38 -102.54,-0.05 -156.79,-153.07 -157.53,-235.19 -2.29,-252.06 233.18,-360.09 408.72,-495.25 l 169.3,-87.62 1185.37,-23.65 8.03,257.79" /><path
         id="path28"
         style="fill:#ebceb1;fill-opacity:1;fill-rule:nonzero;stroke:none"
         d="m 2699.59,6955.88 c -136.1,-45.41 -281.29,53.93 -412.58,-11.69 -85.36,-42.68 -143.42,-150.12 -157.39,-258.61 -6.51,-50.56 -4.4,-103.43 13.84,-147.66 11.83,-28.7 29.99,-52.75 50.37,-73.07 27.25,-27.17 58.94,-47.52 92.93,-60.79 -13.14,-36.36 -29.04,-71.51 -47.43,-104.9 67,-12.61 134.02,-25.21 201.03,-37.82 8.67,45.66 17.35,91.31 26.02,136.97 18.93,5.89 37.54,13.69 55.46,23.84 108.36,61.44 187.3,198.55 195.36,339.39 3.79,65.98 -6.73,130.67 -17.61,194.34" /><path
         id="path30"
         style="fill:#333333;fill-opacity:1;fill-rule:nonzero;stroke:none"
         d="m 2010.68,6665.12 c -5.76,9.81 -11.28,19.75 -16.25,30.01 -60.32,124.51 -92.69,270.69 -3.46,390.68 90.88,122.2 277.02,175.66 419.28,139.43 78.39,-19.96 161.25,-46.81 238.11,-21.57 22.98,7.55 45.27,20.4 58.32,40.78 12.08,18.9 15.19,42.53 27.67,61.16 29.21,43.61 108.9,33.29 126.04,-16.31 5.02,-14.54 5.35,-30.76 12.94,-44.15 16.79,-29.67 57.8,-30.95 91.6,-35.4 10.85,-1.42 22.53,-4.08 29.43,-12.57 12.57,-15.46 0.6,-39.87 -16.71,-49.77 -23.87,-13.67 -65.53,-9.85 -80.64,-36.63 -10.92,-19.38 5.8,-56.52 3,-78.88 -9.82,-78.29 -77.39,-149.41 -148.76,-176.07 -68.38,-25.54 -129.61,2.19 -197.92,19.68 -19.33,4.95 -39.94,17.04 -58.9,19.66 -23.9,3.31 -47.43,-8.38 -70.25,-13.45 -28.49,-6.35 -58.11,-2.77 -87.2,-0.38 -29.09,2.39 -59.38,3.38 -86.4,-7.64 -27.03,-11.04 -49.94,-37.17 -48.3,-66.32 1.98,-35.28 37.52,-62.74 36.86,-98.08 -0.59,-30.63 -27.83,-53.5 -39.48,-81.84 -9.02,-21.95 -9.27,-48.51 -25.73,-65.6 -7.29,-7.6 -17.18,-12.49 -23.82,-20.67 -8.67,-10.7 -11.33,-26.41 -22.91,-33.89 -12.81,-8.27 -30.81,-1.74 -40.68,9.89 -9.87,11.63 -13.91,26.94 -18.79,41.39 -13.14,38.86 -36.62,71.79 -57.05,106.54" /><path
         id="path32"
         style="fill:#d1d9db;fill-opacity:1;fill-rule:nonzero;stroke:none"
         d="m 2267.64,6314.13 c -30.3,3.09 -62.87,5.76 -89.4,-8.81 -23.89,-13.11 -38.23,-37.71 -51.14,-61.26 C 1787.25,5624 1640.02,4905.44 1709.46,4205.88 c 404.82,72.91 817.37,105.14 1228.95,96.04 -37.51,271.92 -75.02,543.84 -112.52,815.75 -27.67,200.58 -55.4,401.47 -101.37,598.83 -40.3,172.96 -94.57,342.84 -162.16,507.59 -42.72,104.05 -198.25,80.19 -294.72,90.04" /><path
         id="path34"
         style="fill:#1a1a1a;fill-opacity:1;fill-rule:nonzero;stroke:none"
         d="m 3148.19,1121.8 79.05,-73.9 c 50.92,-47.5 39.26,-133.798 -24.59,-161.599 -37.62,-16.5 -90.63,-13.899 -163.95,36.199 l -168.35,191.5 27.34,61.9 243.12,36.8 7.38,-90.9" /><path
         id="path36"
         style="fill:#3c6794;fill-opacity:1;fill-rule:nonzero;stroke:none"
         d="m 2982.93,4366.56 391.43,-1599.32 -115.3,-1564.74 -386.27,-33.4 -89.13,1411.38 c 0,0 -847.3,1546.43 -798.82,1579.92 48.49,33.49 998.09,206.16 998.09,206.16" /><path
         id="path38"
         style="fill:#1a1a1a;fill-opacity:1;fill-rule:nonzero;stroke:none"
         d="m 1950.28,1121.8 79.2,-73.6 c 51.01,-47.5 39.52,-133.802 -24.28,-161.798 -37.59,-16.5 -90.6,-14 -164.01,36 L 1672.46,1113.5 v 89 l 63.78,56.24 185.79,-34.39 28.25,-102.55" /><path
         id="path40"
         style="fill:#3c6794;fill-opacity:1;fill-rule:nonzero;stroke:none"
         d="M 2715.42,4265.33 2593.99,2623.28 2024.23,1177.8 1623.57,1258.07 1974.5,2628 c 0,0 -328.51,1732.47 -272.06,1749.36 56.45,16.88 1012.98,-112.03 1012.98,-112.03" /><path
         id="path42"
         style="fill:#3c6794;fill-opacity:1;fill-rule:nonzero;stroke:none"
         d="m 1672.46,4328.8 151.71,367.09 528.43,175.29 -100.78,669.29 527.23,85.3 91.3,-941.73 129.22,-385.49 -1274.06,-232.74 -53.05,262.99" /><path
         id="path44"
         style="fill:#3c6794;fill-opacity:1;fill-rule:nonzero;stroke:none"
         d="m 2280.34,5832.46 c 0.86,103.5 -4.5,221.33 -83.53,288.16 -17.77,15.04 -39.67,26.82 -62.96,26.68 -47.56,-0.26 -79.85,-46.77 -103.58,-87.99 -7.81,61.5 -12.31,129.45 23.72,179.89 45.86,64.19 145.5,72.04 212.85,30.96 67.36,-41.07 105.24,-118.55 119.55,-196.13 14.31,-77.59 8.57,-157.24 8.49,-236.12 -0.11,-115.03 11.95,-229.68 24,-344.08 -46.04,3.1 -90.98,-6.32 -135.87,-8.28 -27.4,101.08 -3.56,240.43 -2.67,346.91" /><path
         id="path46"
         style="fill:#3c6794;fill-opacity:1;fill-rule:nonzero;stroke:none"
         d="m 2636.63,5939.6 c -11.46,99.69 -35.57,209.7 -118.37,266.39 -20.53,14.06 -47.04,29.48 -45.78,54.33 0.73,14.53 11.76,26.74 24.33,34.06 42.03,24.48 98.78,3.5 129.6,-34.12 30.83,-37.63 41.88,-87.25 51.08,-135 36.59,-190.05 58.68,-382.89 66.01,-576.29 1.11,-29.04 -69.72,-12.84 -81.62,0.26 -19.49,21.46 -8.62,71.88 -8.74,97.68 -0.45,97.85 -5.33,195.44 -16.51,292.69" /><path
         id="path48"
         style="fill:#514943;fill-opacity:1;fill-rule:nonzero;stroke:none"
         d="m 8795.16,1473.22 -15.97,-107 36.29,-203.42 119.52,11.3 22.5,301.3 -17.6,48.31 -144.74,-50.49" /><path
         id="path50"
         style="fill:#514943;fill-opacity:1;fill-rule:nonzero;stroke:none"
         d="M 8233.22,1179 8046,1041.8 l 23.36,-102.601 342.77,81.701 -27.88,148.2 -151.03,9.9" /><path
         id="path52"
         style="fill:#3c6794;fill-opacity:1;fill-rule:nonzero;stroke:none"
         d="m 7864.36,3876.26 6.11,-1407.62 313.75,-1321.14 h 255.43 l -15.94,1532.45 153.66,1158.22 -112.57,229.16 -567.58,-64.42 -32.86,-126.65" /><path
         id="path54"
         style="fill:#3c6794;fill-opacity:1;fill-rule:nonzero;stroke:none"
         d="m 8511.72,2840.36 267.47,-1343.77 232.63,27.12 63.68,1049.43 119.56,1147.8 -120.52,335.77 h -649.49 l 86.67,-1216.35" /><path
         id="path56"
         style="fill:#eacdb0;fill-opacity:1;fill-rule:nonzero;stroke:none"
         d="m 9130.58,6336.58 c -24.21,229.55 -316.09,370.38 -440.69,136.4 -37.44,-70.31 -67.31,-147.02 -68.99,-226.78 -1.68,-79.78 28.71,-163.19 92.27,-209.69 l 1.11,-0.73 c -6.98,-19.31 -13.96,-38.62 -20.93,-57.92 -1.51,-4.14 -3,-8.75 -1.4,-12.84 1.82,-4.66 6.92,-6.88 11.55,-8.64 22.58,-8.55 45.16,-17.11 67.75,-25.66 11.2,-4.24 22.88,-8.55 34.78,-7.32 26.08,2.71 42.54,30.26 49.14,56.04 1.57,6.17 2.86,12.47 4.1,18.79 148.36,18.47 287.13,188.29 271.31,338.35" /><path
         id="path58"
         style="fill:#d1b337;fill-opacity:1;fill-rule:nonzero;stroke:none"
         d="m 7922.23,8832.94 c 23.52,69.02 98.54,105.91 167.57,82.4 69.02,-23.52 105.92,-98.54 82.4,-167.56 -23.51,-69.03 -98.53,-105.93 -167.56,-82.41 -69.03,23.51 -105.92,98.53 -82.41,167.57 z m -229.13,78.05 c -66.63,-195.57 37.9,-408.13 233.48,-474.75 195.57,-66.63 408.13,37.9 474.76,233.47 66.63,195.58 -37.91,408.14 -233.48,474.76 -195.58,66.63 -408.14,-37.9 -474.76,-233.48" /><path
         id="path60"
         style="fill:#efd154;fill-opacity:1;fill-rule:nonzero;stroke:none"
         d="m 7212.86,9157.64 c 177.82,405.12 623.42,624.26 1052.83,517.77 l -207.57,-609.28 c -92.96,3.72 -182.17,-40.16 -235.98,-116.05 z m -50.7,-148.81 609.28,-207.57 c -3.72,-92.96 40.16,-182.17 116.06,-235.99 L 7679.93,7956 c -405.12,177.82 -624.26,623.41 -517.77,1052.83 z m 842.48,-343.46 c -69.03,23.51 -105.92,98.53 -82.41,167.57 23.52,69.02 98.54,105.91 167.57,82.4 69.02,-23.52 105.92,-98.54 82.4,-167.56 -23.51,-69.03 -98.53,-105.93 -167.56,-82.41 z m 31.67,-150.79 c 92.96,-3.71 182.17,40.15 235.99,116.05 l 609.28,-207.57 C 8703.77,8017.95 8258.17,7798.81 7828.75,7905.3 Z m 895.97,57.3 -609.28,207.57 c 3.72,92.96 -40.16,182.17 -116.06,235.99 l 207.57,609.27 c 405.12,-177.82 624.26,-623.41 517.77,-1052.83 z m -2048.05,412.96 c -13.13,-77.97 -18.19,-155.96 -15.66,-232.98 l -193.78,-66.7 63.28,-319.96 204.84,12.1 c 27.35,-73.01 61.86,-143.17 102.98,-209.41 l -134.63,-154.85 214.78,-245.45 171.13,112.76 c 59.47,-49.02 124.32,-92.64 194.09,-129.83 l -39.15,-201.31 308.73,-105.19 91.9,183.36 c 77.96,-13.13 155.95,-18.19 232.97,-15.66 l 66.7,-193.79 319.97,63.28 -12.1,204.83 c 73.01,27.36 143.17,61.87 209.4,102.99 l 154.86,-134.64 245.45,214.79 -112.76,171.14 c 49.03,59.45 92.63,124.31 129.83,194.07 l 201.32,-39.15 105.17,308.74 -183.35,91.9 c 13.14,77.96 18.2,155.94 15.67,232.97 l 193.78,66.69 -63.29,319.98 -204.83,-12.1 c -27.35,72.99 -61.85,143.17 -102.98,209.4 l 134.63,154.84 -214.78,245.46 -171.14,-112.75 c -59.46,49.02 -124.31,92.63 -194.08,129.81 l 39.15,201.32 -308.73,105.2 -91.89,-183.36 c -77.97,13.13 -155.96,18.19 -232.98,15.66 l -66.7,193.8 -319.97,-63.3 12.11,-204.83 c -73.01,-27.36 -143.19,-61.87 -209.42,-102.99 L 7269.9,9926.32 7024.45,9711.53 7137.2,9540.4 c -49.02,-59.46 -92.62,-124.32 -129.81,-194.08 l -201.33,39.15 -105.17,-308.73 183.34,-91.9" /><path
         id="path62"
         style="fill:#c1b23f;fill-opacity:1;fill-rule:nonzero;stroke:none"
         d="m 7082.13,9119.13 c -181.29,-532.14 104.16,-1112.57 636.3,-1293.86 532.16,-181.29 1112.59,104.16 1293.88,636.3 C 9193.6,8993.73 8908.15,9574.16 8376,9755.45 7843.85,9936.74 7263.42,9651.29 7082.13,9119.13 Z m -42.47,14.47 c 189.27,555.58 795.24,853.58 1350.81,664.31 555.57,-189.27 853.58,-795.24 664.3,-1350.8 -189.27,-555.57 -795.22,-853.58 -1350.8,-664.3 -555.57,189.27 -853.57,795.22 -664.31,1350.79" /><path
         id="path64"
         style="fill:#d1b337;fill-opacity:1;fill-rule:nonzero;stroke:none"
         d="m 7143.78,8911.39 c -53.73,-397.75 161.63,-791 536.15,-955.39 l 73.31,215.18 c 43.08,-37.47 86.4,-73.05 129.7,-106.83 l -54.19,-159.05 c 103.87,-25.76 208.66,-32.29 310.41,-21.93 119.72,-76.44 234.64,-139.34 338.36,-190.37 -5.78,-2.27 -11.44,-4.78 -17.24,-6.96 l 12.1,-204.83 -319.97,-63.28 -66.7,193.79 c -77.02,-2.53 -155.01,2.53 -232.97,15.66 l -91.9,-183.36 -308.73,105.19 39.15,201.31 c -69.77,37.19 -134.62,80.81 -194.09,129.83 l -171.13,-112.76 -214.78,245.45 134.63,154.85 c -41.12,66.24 -75.63,136.4 -102.98,209.41 l -204.84,-12.1 -63.28,319.96 193.79,66.7 c -2.53,77.02 2.52,155.01 15.65,232.98 l -183.34,91.9 105.17,308.73 136.82,-26.61 c 55.59,-161.94 123.73,-310.78 200.9,-447.47" /><path
         id="path66"
         style="fill:#ada03b;fill-opacity:1;fill-rule:nonzero;stroke:none"
         d="m 7064.68,9062.46 c -143.26,-516.07 140.44,-1062.32 653.75,-1237.19 187.75,-63.95 381.48,-69.75 561.6,-27.19 19.02,-10.9 37.82,-21.44 56.41,-31.66 -200.84,-57.04 -420.32,-55.89 -632.47,16.39 -552.15,188.1 -849.8,787.76 -667.67,1340.51 9.28,-20.51 18.72,-40.83 28.38,-60.86" /><path
         id="path68"
         style="fill:#faeb7d;fill-opacity:1;fill-rule:nonzero;stroke:none"
         d="m 8562.62,9854.86 c 1.13,-3.83 38.79,160.54 38.79,160.54 l -247.29,82.7 c 0,0 162.33,-86.4 208.5,-243.24" /><path
         id="path70"
         style="fill:#659993;fill-opacity:1;fill-rule:nonzero;stroke:none"
         d="m 5702.04,6296.76 537.46,-80.88 c 5.27,-30.77 17.14,-60.65 35.73,-87.45 l -244.29,-493.6 c -27.33,-55.22 -99.84,-70.32 -146.12,-29.63 -132.5,116.49 -230.61,274.49 -271.99,459.87 -9.89,44.33 -16.16,88.62 -19.04,132.56 -3.9,59.94 48.85,108.07 108.25,99.13 m 489.33,-749.71 241.54,488.06 c 50.12,-5.17 101.8,6.83 145.46,36.45 l 420.05,-343.97 c 46.25,-37.88 46.09,-108.76 -0.4,-146.35 -100.2,-81.05 -220.15,-140.8 -354.46,-170.78 -133.11,-29.7 -265.87,-26.93 -390.05,3.05 -58.71,14.18 -88.93,79.41 -62.14,133.54 m 482.07,682.84 c 2.45,23 1.27,46.34 -3.57,69.09 l 453.47,302.66 c 50.21,33.51 119.14,12.11 140.34,-44.42 13.98,-37.31 25.55,-76.03 34.49,-116.03 40.9,-183.3 20.21,-365.98 -48.32,-526.45 -24.81,-58.08 -97.97,-76.66 -146.84,-36.64 l -429.57,351.79 m -208.06,154.69 c 72.6,-5.44 127.03,-68.72 121.58,-141.32 -5.46,-72.61 -68.73,-127.04 -141.34,-121.59 -72.6,5.46 -127.04,68.73 -121.58,141.34 5.45,72.59 68.73,127.04 141.34,121.57 m 552.06,366.06 -457.02,-305.03 c -18.73,10.22 -38.68,17.52 -59.14,21.87 l -119.19,534.05 c -13.36,59.84 33.05,116.35 94.35,114.91 206.53,-4.85 401.31,-84.14 551.55,-217 46.18,-40.85 40.73,-114.57 -10.55,-148.8 m -694.5,-322.94 c -5.41,-4.11 -10.68,-8.47 -15.78,-13.14 -7.24,-6.66 -13.87,-13.73 -20.03,-21.08 l -661.17,99.51 c 66.28,228.47 225.59,424 443.71,532.72 54.8,27.31 120.75,-4.21 134.08,-63.98 l 119.19,-534.03 m -1381.55,-308.98 -139.8,-70.11 c 6.64,-52.89 15.77,-105.75 27.53,-158.44 11.76,-52.69 25.97,-104.42 42.45,-155.11 l 156.35,-4.02 c 177.83,-4.56 281.37,-202.8 183.53,-351.37 l -86.4,-131.2 c 64.4,-85.19 137.15,-164.22 217.59,-236.06 l 137.57,74.78 c 156.3,84.97 345.09,-34.94 334.64,-212.53 l -9.19,-156.3 c 99.22,-42.27 201.68,-74.53 306.17,-96.59 l 82.01,133.99 c 92.88,151.73 316.33,142.28 396.07,-16.74 l 70.12,-139.8 c 52.88,6.64 105.74,15.77 158.43,27.52 52.69,11.76 104.42,25.97 155.11,42.46 l 4.02,156.34 c 4.55,177.84 202.8,281.39 351.37,183.55 l 131.2,-86.41 c 85.19,64.4 164.22,137.16 236.06,217.59 l -74.79,137.58 c -84.96,156.29 34.94,345.09 212.53,334.64 l 156.31,-9.2 c 42.26,99.22 74.52,201.68 96.58,306.17 l -133.98,82.01 c -151.73,92.88 -142.29,316.33 16.74,396.08 l 139.8,70.1 c -6.64,52.89 -15.77,105.76 -27.53,158.44 -11.76,52.68 -25.97,104.41 -42.45,155.11 l -156.35,4.01 c -177.83,4.57 -281.39,202.8 -183.54,351.38 l 86.4,131.2 c -64.39,85.19 -137.16,164.22 -217.58,236.06 l -137.57,-74.79 c -156.3,-84.96 -345.09,34.94 -334.65,212.53 l 9.2,156.31 c -99.22,42.26 -201.68,74.52 -306.17,96.58 l -82.01,-133.98 c -92.88,-151.73 -316.33,-142.29 -396.08,16.73 l -70.11,139.81 c -52.88,-6.64 -105.75,-15.77 -158.44,-27.53 -52.68,-11.76 -104.41,-25.97 -155.1,-42.44 l -4.02,-156.35 c -4.57,-177.84 -202.8,-281.39 -351.37,-183.55 l -131.2,86.41 c -85.19,-64.4 -164.22,-137.16 -236.06,-217.6 l 74.79,-137.57 c 84.96,-156.3 -34.95,-345.08 -212.53,-334.64 l -156.31,9.21 c -42.27,-99.23 -74.52,-201.69 -96.58,-306.19 l 133.98,-82.01 c 151.73,-92.87 142.29,-316.33 -16.74,-396.06" /><path
         id="path72"
         style="fill:#5a8883;fill-opacity:1;fill-rule:nonzero;stroke:none"
         d="m 6456.28,5150.56 c -27.61,0 -55.4,1.04 -83.37,3.14 -258.79,19.44 -490.26,127.24 -667,291.54 27.95,-3.27 52.3,-7.87 79.64,-18.8 18.06,-7.22 70.08,-7.63 74.1,-13.09 h 0.01 l -100.6,294.49 c 148.2,-189.12 372.25,-317.78 630.16,-337.15 22.42,-1.69 44.78,-2.51 66.91,-2.52 458.13,-0.03 846.94,354.51 881.81,818.67 36.55,486.58 -329.58,912.18 -816.16,948.72 -22.42,1.69 -44.79,2.52 -66.92,2.52 -458.13,0 -846.93,-354.51 -881.8,-818.66 -1.5,-20.05 -2.33,-40 -2.49,-59.82 l -138.21,404.61 c 164.61,408.96 565.88,691.48 1022.34,691.48 27.61,0 55.41,-1.03 83.38,-3.14 606.23,-45.53 1062.38,-575.78 1016.85,-1182.01 -22.09,-294.01 -158.2,-552.73 -361.68,-736.04 -2.82,0.73 -5.67,1.11 -8.52,1.11 -7.87,0 -15.69,-2.95 -22.48,-9.91 -3.21,-3.3 -6.42,-6.58 -9.63,-9.87 l -62.75,107.45 -250.07,-143.43 75.18,-128.73 c -140.43,-64.7 -296.04,-100.56 -458.7,-100.56 m -851.25,649.35 c -15.67,0 -16.98,7.16 -30.86,27.08 -28.7,41.13 -52.31,85.3 -70.85,131.84 -17.5,43.9 -36.68,94.94 -38.76,142.41 -1.59,36.17 24.12,53.5 53.5,64.88 12.64,3.73 25.16,7.83 37.63,12.24 7.49,2.66 13.11,6.64 17.08,11.4 9.73,-136.65 50.97,-265.8 116.88,-379.42 -23.92,-3.16 -47.84,-6.46 -71.79,-9.43 -5.18,-0.65 -9.35,-1 -12.83,-1" /><path
         id="path74"
         style="fill:#8c314c;fill-opacity:1;fill-rule:nonzero;stroke:none"
         d="m 5737.7,8439.42 c -231.37,-142.95 -535.44,-72.21 -679.02,160.33 -142.64,232.15 -71.19,535.72 160.78,678.43 231.29,143.86 535.4,72.19 678.48,-159.48 143.95,-232.24 71.6,-536.3 -160.24,-679.28 z m 831.16,270.64 c 5.87,41.9 8.84,83.79 9.59,125.17 l -208.79,71.87 -38.47,215.5 170.82,139.9 c -31.21,79.55 -71.64,154.74 -119.91,224.4 l -211.25,-64.86 -158.03,151.55 55.98,213.92 c -68.77,43.73 -143.12,80.42 -222.03,108.24 l -133.8,-176.16 -216.79,31.4 -79.17,206.64 c -86.2,-4.89 -170.29,-19.66 -250.9,-43.68 l -4.61,-221.05 -193.78,-102.3 -185.39,120.1 c -65.5,-53.55 -125.06,-114.71 -177,-182.71 l 125.9,-181.28 -96.24,-196.58 -220.62,-11.98 c -11.05,-42.17 -20.08,-85.65 -26.22,-130.34 -5.34,-40.84 -8.43,-81.24 -9.54,-121.41 l 208.75,-72.49 37.78,-215.62 -171.72,-139.36 c 31.35,-79.63 71.42,-155.5 119.7,-225.34 l 211.52,64.19 157.59,-152 -56.87,-213.82 c 70.94,-45.23 147.42,-83.19 228.8,-111.66 l 133.31,176.72 216.91,-30.5 79.58,-206.42 c 86.2,5.27 170.24,20.47 250.83,44.66 l 3.97,221.04 193.32,103.13 185.68,-119.59 c 65.6,54 125.05,115.28 176.66,183.26 l -126.89,180.83 95.59,197.31 220.82,12.29 c 10.53,41.5 19.16,83.87 24.92,127.03" /><path
         id="path76"
         style="fill:#ffffff;fill-opacity:1;fill-rule:nonzero;stroke:none"
         d="m 5820.79,8304.96 c -305.66,-188.93 -707.14,-94.18 -896.04,211.57 -189.47,306.36 -94.61,707.4 211.07,896.61 305.93,188.91 707.63,93.78 896.57,-212.07 189,-305.7 94.33,-707.21 -211.6,-896.11 z m 271.79,933.26 c -209.46,339.09 -654.81,444.55 -993.99,235.12 -338.89,-209.76 -444.05,-654.39 -233.99,-994.03 209.42,-338.97 654.52,-444.01 993.39,-234.57 339.18,209.44 444.14,654.57 234.59,993.48" /><path
         id="path78"
         style="fill:#782441;fill-opacity:1;fill-rule:nonzero;stroke:none"
         d="m 4935.94,8151.84 6.29,-6.06 -52.9,-212.58 -3.97,-1.24 c 70.94,-45.23 147.42,-83.19 228.8,-111.66 l -1.38,3.86 134.69,172.86 216.91,-30.5 82.35,-203.08 -2.77,-3.34 c 86.2,5.27 170.24,20.47 250.83,44.66 l -3.3,2.13 7.27,218.91 193.32,103.13 186.09,-115.89 -0.41,-3.7 c 65.6,54 125.05,115.28 176.66,183.26 l -3.93,-0.37 -122.96,181.2 95.59,197.31 218.51,15.43 2.31,-3.14 c 10.53,41.5 19.16,83.87 24.92,127.03 5.87,41.9 8.84,83.79 9.59,125.17 l -2.81,-2.69 -58.4,21.13 c -501.67,-513.6 -1112.45,-669.78 -1581.3,-701.83" /><path
         id="path80"
         style="fill:#bb899a;fill-opacity:1;fill-rule:nonzero;stroke:none"
         d="m 5857.99,8244.74 c 116.36,71.85 205.13,171.45 263.12,284.96 -45.57,-29.34 -91.46,-56.57 -137.53,-81.81 -44.72,-54.97 -99.1,-103.61 -162.79,-142.93 -139.12,-85.99 -298.06,-113.03 -447.81,-88.34 -52.12,-12.15 -103.59,-22.46 -154.15,-31.12 203.37,-78.27 439.66,-64.07 639.16,59.24" /><path
         id="path82"
         style="fill:#a63f65;fill-opacity:1;fill-rule:nonzero;stroke:none"
         d="m 5177.02,9738.68 8.84,178.23 c 0,0 112.54,37.04 193.68,36.87 0,0 -135.71,-25.4 -202.52,-215.1" /><path
         id="path84"
         style="fill:#cacaca;fill-opacity:1;fill-rule:nonzero;stroke:none"
         d="m 5626.77,960.5 c -67.42,0 -264.53,14.5 -295.98,71.9 -37.34,68 359.69,78.3 396.03,79.5 60.72,1.9 121.49,2.7 182.26,2.7 18.52,0 37.06,0 55.58,-0.2 0.79,0 1.58,0 2.4,0 10.75,0 23.83,0.5 38,1.1 14.16,0.5 29.42,1.1 44.57,1.1 32.8,0 65.06,-2.6 84.47,-13.3 13.34,-7.4 24.18,-20.7 20.76,-33.9 -3.13,-12 -21.01,-23.5 -40.72,-32.9 -18.2,-8.7 -37.96,-15.6 -49.12,-19.6 -45.74,-16.4 -93.76,-27.798 -142.45,-35.9 -94.85,-15.699 -191.87,-18.5 -288.3,-20.398 -2.28,-0.102 -4.78,-0.102 -7.5,-0.102" /><path
         id="path86"
         style="fill:#435b6e;fill-opacity:1;fill-rule:nonzero;stroke:none"
         d="m 5821.34,1290.59 c 0,-176.89 -143.39,-320.289 -320.29,-320.289 -176.88,0 -320.28,143.399 -320.28,320.289 0,176.9 143.4,320.3 320.28,320.3 176.9,0 320.29,-143.4 320.29,-320.3" /><path
         id="path88"
         style="fill:#2e414c;fill-opacity:1;fill-rule:nonzero;stroke:none"
         d="m 5377.65,1099.9 -103.45,202.21 123.39,190.71 226.87,-11.52 103.46,-202.22 -123.4,-190.68 -226.87,11.5" /><path
         id="path90"
         style="fill:#22323a;fill-opacity:1;fill-rule:nonzero;stroke:none"
         d="m 5618.37,1290.59 c 0,-64.78 -52.52,-117.29 -117.32,-117.29 -64.78,0 -117.3,52.51 -117.3,117.29 0,64.79 52.52,117.31 117.3,117.31 64.8,0 117.32,-52.52 117.32,-117.31" /><path
         id="path92"
         style="fill:#2e414c;fill-opacity:1;fill-rule:nonzero;stroke:none"
         d="m 5993.42,2295.21 338.11,644.87 281.26,-172.14 -417.31,-596.39 -111.22,17.43 c -11.16,1.75 -21.13,7.93 -27.66,17.15 l -63.18,89.08" /><path
         id="path94"
         style="fill:#435b6e;fill-opacity:1;fill-rule:nonzero;stroke:none"
         d="m 6040.86,2392.74 c 92.76,-33.54 188.06,-66.05 286.24,-97.59 41.92,-13.46 67.93,51.46 24.38,65.05 -101.75,31.79 -200.41,64.62 -296.37,98.57 -39.67,14.04 -52.58,-52.18 -14.25,-66.03" /><path
         id="path96"
         style="fill:#435b6e;fill-opacity:1;fill-rule:nonzero;stroke:none"
         d="m 5985.65,2286.09 c 86.52,-32.48 175.25,-64.06 266.46,-94.8 38.91,-13.12 60.76,44.28 20.44,57.55 -94.29,31.04 -185.92,62.97 -275.22,95.88 -36.96,13.63 -47.46,-45.2 -11.68,-58.63" /><path
         id="path98"
         style="fill:#435b6e;fill-opacity:1;fill-rule:nonzero;stroke:none"
         d="m 6163.73,2631.58 c 107.14,-32.75 218.01,-63.97 333.14,-93.69 49.38,-12.75 91.84,78.29 40,90.98 -120.57,29.56 -236.49,60.76 -348.36,93.68 -46.08,13.55 -68.88,-77.49 -24.78,-90.97" /><path
         id="path100"
         style="fill:#435b6e;fill-opacity:1;fill-rule:nonzero;stroke:none"
         d="m 6103.75,2514.22 c 99.96,-34.58 202.87,-67.97 309.14,-100.23 45.44,-13.79 76.64,60.32 29.3,74.21 -110.45,32.42 -217.29,66.08 -320.97,101.04 -42.84,14.44 -58.73,-60.75 -17.47,-75.02" /><path
         id="path102"
         style="fill:#4d5d67;fill-opacity:1;fill-rule:nonzero;stroke:none"
         d="m 6193.09,2173.85 -15.24,0.46 v 0 l 20.16,35.41 c 5.37,-1.85 10.75,-3.7 16.14,-5.54 l -21.06,-30.33 m 57.19,82.36 c -7.24,2.4 -14.47,4.81 -21.68,7.23 l 30.65,53.81 c 9.05,-2.99 18.12,-5.97 27.21,-8.94 l -36.18,-52.1 m 77.41,111.46 c -11.25,3.55 -22.46,7.11 -33.64,10.69 l 35.04,61.52 c 13.3,-4.18 26.65,-8.34 40.07,-12.49 l -41.47,-59.72" /><path
         id="path104"
         style="fill:#5f7384;fill-opacity:1;fill-rule:nonzero;stroke:none"
         d="m 6286.46,2308.31 c -9.09,2.97 -18.16,5.95 -27.21,8.94 l 34.8,61.11 c 11.18,-3.58 22.39,-7.14 33.64,-10.69 l -41.23,-59.36" /><path
         id="path106"
         style="fill:#4d5d67;fill-opacity:1;fill-rule:nonzero;stroke:none"
         d="m 6416.63,2495.75 c -15.95,4.73 -31.81,9.48 -47.6,14.27 l 30.54,53.62 c 17.94,-4.87 35.99,-9.7 54.14,-14.49 l -37.08,-53.4 m 96.51,138.98 c -21.45,5.32 -42.75,10.69 -63.9,16.12 l 40.44,71.01 49.35,-49.85 -25.89,-37.28" /><path
         id="path108"
         style="fill:#5f7384;fill-opacity:1;fill-rule:nonzero;stroke:none"
         d="m 6214.15,2204.18 c -5.39,1.84 -10.77,3.69 -16.14,5.54 l 30.59,53.72 c 7.21,-2.42 14.44,-4.83 21.68,-7.23 l -36.13,-52.03" /><path
         id="path110"
         style="fill:#5f7384;fill-opacity:1;fill-rule:nonzero;stroke:none"
         d="m 6453.71,2549.15 c -18.15,4.79 -36.2,9.62 -54.14,14.49 l 49.67,87.21 c 21.15,-5.43 42.45,-10.8 63.9,-16.12 l -59.43,-85.58" /><path
         id="path112"
         style="fill:#5f7384;fill-opacity:1;fill-rule:nonzero;stroke:none"
         d="m 6369.16,2427.39 c -13.42,4.15 -26.77,8.31 -40.07,12.49 l 39.94,70.14 c 15.79,-4.79 31.65,-9.54 47.6,-14.27 l -47.47,-68.36" /><path
         id="path114"
         style="fill:#5c7789;fill-opacity:1;fill-rule:nonzero;stroke:none"
         d="m 6847.95,2846.72 c 4.26,110.25 -81.38,229.38 -190.16,295.95 -108.77,66.57 -253.83,88.64 -350.06,34.68 -145.91,-81.82 -141.7,-305.11 95.65,-450.37 237.33,-145.26 438.09,-47.42 444.57,119.74" /><path
         id="path116"
         style="fill:#435b6e;fill-opacity:1;fill-rule:nonzero;stroke:none"
         d="m 6446.07,2796.73 c -237.34,145.27 -254.99,346.62 -119.49,411.42 89.36,42.74 230.36,14.04 339.14,-52.53 108.77,-66.57 198.48,-179.07 201.07,-278.1 3.94,-150.15 -183.39,-226.04 -420.72,-80.79" /><path
         id="path118"
         style="fill:#2e414c;fill-opacity:1;fill-rule:nonzero;stroke:none"
         d="m 6487.9,3181.08 169.56,-56.21 118.81,-130.62 -34.46,-135.85 -249.29,43.82 -124.38,202.44 119.76,76.42" /><path
         id="path120"
         style="fill:#22323a;fill-opacity:1;fill-rule:nonzero;stroke:none"
         d="m 6556.55,2977.26 c -63.24,38.7 -87.54,97.21 -58.79,126.13 24.73,24.87 81.36,18.75 129.45,-10.69 48.09,-29.43 79.3,-77.08 68.41,-110.41 -12.67,-38.75 -75.83,-43.74 -139.07,-5.03" /><path
         id="path122"
         style="fill:#2e414c;fill-opacity:1;fill-rule:nonzero;stroke:none"
         d="m 7237.86,4698.27 -398.06,681.58 250.07,143.43 398.05,-681.58 -60.67,-121.12 c -10.13,-20.23 -31.39,-32.43 -53.96,-30.98 l -135.43,8.67" /><path
         id="path124"
         style="fill:#435b6e;fill-opacity:1;fill-rule:nonzero;stroke:none"
         d="m 6978,5124.2 c 82.44,77.84 163.33,157.46 242.67,238.87 33.31,34.17 -25.05,96.86 -58.42,62.63 -79.34,-81.42 -160.23,-161.04 -242.66,-238.86 -34.58,-32.65 23.87,-95.24 58.41,-62.64" /><path
         id="path126"
         style="fill:#435b6e;fill-opacity:1;fill-rule:nonzero;stroke:none"
         d="m 7063.72,4974.78 c 82.42,77.82 163.31,157.44 242.66,238.86 33.3,34.18 -25.06,96.86 -58.42,62.64 -79.35,-81.43 -160.24,-161.04 -242.66,-238.87 -34.59,-32.66 23.87,-95.24 58.42,-62.63" /><path
         id="path128"
         style="fill:#435b6e;fill-opacity:1;fill-rule:nonzero;stroke:none"
         d="m 7149.42,4825.36 c 82.42,77.82 163.31,157.44 242.67,238.86 33.3,34.17 -25.06,96.86 -58.42,62.62 -79.36,-81.41 -160.24,-161.03 -242.67,-238.85 -34.59,-32.66 23.88,-95.25 58.42,-62.63" /><path
         id="path130"
         style="fill:#435b6e;fill-opacity:1;fill-rule:nonzero;stroke:none"
         d="m 7235.12,4675.92 c 82.43,77.83 163.32,157.45 242.67,238.86 33.31,34.18 -25.05,96.87 -58.42,62.64 -79.34,-81.42 -160.23,-161.04 -242.65,-238.86 -34.59,-32.65 23.86,-95.24 58.4,-62.64" /><path
         id="path132"
         style="fill:#ffffff;fill-opacity:1;fill-rule:nonzero;stroke:none"
         d="m 7421.62,4706.94 -1.63,2.61 c 2.81,3.33 5.25,7.03 7.26,11.03 l 13.56,27.07 0.21,-0.45 -19.4,-40.26" /><path
         id="path134"
         style="fill:#3e505a;fill-opacity:1;fill-rule:nonzero;stroke:none"
         d="m 7419.99,4709.55 -56.25,90.49 c 11.92,11.76 23.81,23.57 35.67,35.41 l 41.4,-87.8 -13.56,-27.07 c -2.01,-4 -4.45,-7.7 -7.26,-11.03 m -102.61,165.05 -43.81,70.48 c 16.9,16.64 33.73,33.37 50.5,50.17 l 36.54,-77.51 c -14.36,-14.44 -28.77,-28.82 -43.23,-43.14 m -90.16,145.02 -43.82,70.49 c 21.89,21.52 43.65,43.17 65.31,64.95 l 36.54,-77.48 c -19.26,-19.43 -38.59,-38.74 -58.03,-57.96 m -90.16,145.02 -43.83,70.51 c 26.87,26.39 53.58,52.98 80.11,79.76 l 36.53,-77.46 c -24.13,-24.44 -48.4,-48.71 -72.81,-72.81 m -90.16,145.03 -39.6,63.7 103.14,74.96 24.04,-50.99 c -28.99,-29.46 -58.19,-58.68 -87.58,-87.67" /><path
         id="path136"
         style="fill:#526879;fill-opacity:1;fill-rule:nonzero;stroke:none"
         d="m 7093.23,5235.15 -46.33,74.52 c 29.39,28.99 58.59,58.21 87.58,87.67 l 38.86,-82.43 c -26.53,-26.78 -53.24,-53.37 -80.11,-79.76" /><path
         id="path138"
         style="fill:#526879;fill-opacity:1;fill-rule:nonzero;stroke:none"
         d="m 7183.4,5090.11 -46.34,74.53 c 24.41,24.1 48.68,48.37 72.81,72.81 l 38.84,-82.39 c -21.66,-21.78 -43.42,-43.43 -65.31,-64.95" /><path
         id="path140"
         style="fill:#526879;fill-opacity:1;fill-rule:nonzero;stroke:none"
         d="m 7273.57,4945.08 -46.35,74.54 c 19.44,19.22 38.77,38.53 58.03,57.96 l 38.82,-82.33 c -16.77,-16.8 -33.6,-33.53 -50.5,-50.17" /><path
         id="path142"
         style="fill:#526879;fill-opacity:1;fill-rule:nonzero;stroke:none"
         d="m 7363.74,4800.04 -46.36,74.56 c 14.46,14.32 28.87,28.7 43.23,43.14 l 38.8,-82.29 c -11.86,-11.84 -23.75,-23.65 -35.67,-35.41" /><path
         id="path144"
         style="fill:#5c7789;fill-opacity:1;fill-rule:nonzero;stroke:none"
         d="m 7155.13,5808.42 c -97.5,44.59 -249.01,11.64 -364.83,-61.53 -115.82,-73.16 -209.97,-195.4 -210.39,-301.84 -0.65,-161.4 203.39,-240.15 456.11,-80.49 252.72,159.65 266.94,376.26 119.11,443.86" /><path
         id="path146"
         style="fill:#435b6e;fill-opacity:1;fill-rule:nonzero;stroke:none"
         d="m 6994.78,5428.71 c -252.71,-159.65 -443.78,-101.09 -433.08,44.67 7.06,96.12 105.12,212.25 220.94,285.42 115.82,73.17 263.42,112.23 354.28,77.95 137.77,-51.95 110.59,-248.38 -142.14,-408.04" /><path
         id="path148"
         style="fill:#2e414c;fill-opacity:1;fill-rule:nonzero;stroke:none"
         d="m 6682.01,5586.12 137.55,131.64 178.85,58.51 105.21,-81.18 -167.12,-207.91 -246.65,-36.96 -7.84,135.9" /><path
         id="path150"
         style="fill:#22323a;fill-opacity:1;fill-rule:nonzero;stroke:none"
         d="m 6901.4,5572.49 c -67.33,-42.54 -132.65,-42.76 -144.1,-6.23 -9.83,31.41 24.66,80.06 75.87,112.41 51.2,32.35 110.25,42.8 134.81,20.68 28.56,-25.71 0.77,-84.32 -66.58,-126.86" /><path
         id="path152"
         style="fill:#2e414c;fill-opacity:1;fill-rule:nonzero;stroke:none"
         d="m 5548.9,6191.62 129.15,-381.64 c 14.72,-43.5 61.92,-66.83 105.41,-52.11 l 48.01,16.25 c 43.5,14.71 66.83,61.91 52.11,105.41 l -129.15,381.64 c -14.72,43.49 -61.9,66.82 -105.41,52.11 l -48.01,-16.25 c -43.49,-14.72 -66.82,-61.92 -52.11,-105.41" /><path
         id="path154"
         style="fill:#435b6e;fill-opacity:1;fill-rule:nonzero;stroke:none"
         d="m 5621.8,5935.15 c 91.74,1.63 183.47,2.35 275.22,2.13 25.97,-0.06 28.54,-40.59 2.32,-40.53 -91.75,0.21 -183.47,-0.5 -275.21,-2.13 -26.02,-0.47 -28.55,40.06 -2.33,40.53" /><path
         id="path156"
         style="fill:#435b6e;fill-opacity:1;fill-rule:nonzero;stroke:none"
         d="m 5580.91,6056 c 91.73,1.63 183.46,2.35 275.21,2.14 25.98,-0.06 28.54,-40.59 2.32,-40.54 -91.74,0.21 -183.47,-0.5 -275.2,-2.13 -26.03,-0.46 -28.56,40.06 -2.33,40.53" /><path
         id="path158"
         style="fill:#435b6e;fill-opacity:1;fill-rule:nonzero;stroke:none"
         d="m 5557.14,6165.81 c 91.73,1.63 183.47,2.34 275.21,2.14 25.98,-0.06 28.55,-40.6 2.32,-40.54 -91.73,0.2 -183.47,-0.51 -275.2,-2.14 -26.03,-0.46 -28.55,40.08 -2.33,40.54" /><path
         id="path160"
         style="fill:#afbdc6;fill-opacity:1;fill-rule:nonzero;stroke:none"
         d="m 5579.76,6269.52 c 51.23,7.2 102.58,13.78 154.08,19.45 37.97,4.18 95.16,21.36 132.68,1.21 35.84,-19.26 54.19,-73.77 70.7,-108.54 22.86,-48.17 42.64,-97.74 59.08,-148.25 14.76,-45.35 26.6,-91.43 36.25,-137.91 7.57,-36.37 13.49,-72.57 -16.82,-97.48 -65.78,-54.03 -182.84,-46.77 -264.29,-45.67 -48.5,0.65 -56,78.25 -7.14,77.59 67.8,-0.92 134.72,-0.99 198.81,19.64 24.05,7.74 21.04,8.49 15.85,34.71 -3.91,19.71 -8.63,39.32 -13.76,58.81 -8.96,34.16 -19.43,68.03 -31.39,101.4 -11.96,33.37 -25.32,66.29 -40.11,98.6 -8,17.46 -16.35,38.21 -26.67,54.3 -14.41,22.45 -14.74,19.85 -37.31,21.08 -33.27,1.8 -70.34,-7.15 -103.05,-10.98 -40.02,-4.7 -79.93,-9.95 -119.77,-15.56 -47.73,-6.72 -54.63,70.91 -7.14,77.6" /><path
         id="path162"
         style="fill:#2e414c;fill-opacity:1;fill-rule:nonzero;stroke:none"
         d="m 5400.69,6221.63 c 36.26,10.25 73.17,15.11 109.34,25.77 5.61,1.9 11.22,3.71 16.75,5.39 47.91,14.55 77.13,-57.33 28.91,-74.43 -12.47,-4.41 -24.99,-8.51 -37.63,-12.24 -29.38,-11.38 -55.09,-28.71 -53.5,-64.88 2.08,-47.47 21.26,-98.51 38.76,-142.41 18.54,-46.54 42.15,-90.71 70.85,-131.84 16.96,-24.33 15.14,-29.62 43.69,-26.08 25.42,3.15 50.8,6.68 76.19,10 25.86,3.4 40.72,-15.83 42.33,-36.23 8.95,-15.63 8.44,-35.81 -10.66,-48.62 -56.6,-37.97 -133.63,-75.33 -196.96,-24.66 -32.51,26.01 -45.25,72.43 -61.06,109.06 -18.98,43.93 -37.96,87.88 -56.93,131.81 -26.81,62.06 -87.88,151.91 -69.7,222.41 7.88,30.57 30.26,48.64 59.62,56.95" /><path
         id="path164"
         style="fill:#afbdc6;fill-opacity:1;fill-rule:nonzero;stroke:none"
         d="m 6127.54,5981.87 c 105.53,11.08 208.18,30.15 312.1,51.47 69.53,14.26 137.93,26.44 205.49,48.15 66.55,21.39 132.49,44.72 199.73,63.89 50.26,14.32 207.53,74.64 239.78,9.35 19.49,-39.48 -20.57,-87.51 -44.01,-115.55 -34.72,-41.55 -71.13,-83.77 -108.33,-122.61 -111.5,-116.42 -238,-218.39 -375.54,-302.47 -108.79,-66.51 -226.05,-122.33 -350.44,-148.89 -14.31,-3.06 -28.74,-5.72 -43.25,-7.98 -6.07,-0.94 -12.56,-1.76 -18.16,0.77 -8.23,3.74 -11.81,13.29 -14.54,21.9 -44.27,139.54 -79.98,281.79 -106.88,425.68 -3.43,18.36 -6.48,38.39 2.35,54.85 14.33,26.71 75.91,18.74 101.7,21.44" /><path
         id="path166"
         style="fill:#435b6e;fill-opacity:1;fill-rule:nonzero;stroke:none"
         d="m 5417.38,6211.42 c -20.92,-2.6 -33.21,-23.9 -25.94,-44.92 l 133.45,-385.58 c 5.95,-17.18 23.09,-28.17 40.12,-25.7 l 169.46,24.6 125.19,-366.47 h -0.01 c -4.02,5.46 -56.04,5.87 -74.1,13.09 -32.19,12.86 -60.22,16.97 -94.88,20.43 -220.89,22.06 -455.55,28.85 -643.84,-108.04 -302.86,-220.16 -600.48,-448.34 -898.16,-675.42 -301.98,-230.37 -601.54,-463.98 -895.73,-704.23 -5.89,-4.81 -11.77,-9.62 -17.65,-14.43 -145.49,-119.03 -289.67,-239.64 -434.23,-359.78 -75.15,-62.47 -150.41,-124.84 -226.02,-186.79 -81.25,-66.6 -131.61,-136.22 -246.29,-100.43 -102.37,31.94 -204.61,104.56 -271.82,187.21 -55.19,67.85 -91.69,147.27 -109.84,232.67 -19.62,92.22 -55.18,206.95 39.6,267.26 41.58,26.46 82.67,52.77 122.4,82.04 611.69,415.65 1234.23,829.6 1837.04,1262.82 42.72,30.71 85.47,61.4 128.29,91.99 158.32,113.06 421.3,315.8 575.9,434.08 301.22,230.45 336.25,400.63 509.69,680.45 70.01,112.98 135.47,228.75 197.82,346.13 l 222.29,-650.75 -162.74,-20.23" /><path
         id="path168"
         style="fill:#c1d0db;fill-opacity:1;fill-rule:nonzero;stroke:none"
         d="m 5886.61,7195.15 c 227.88,43.06 788.41,-236.28 935.91,-297.84 147.51,-61.56 51.49,-177.7 51.49,-177.7 -26.43,-3.99 -52.8,-8.29 -79.17,-12.64 -71.33,-11.79 -142.52,-24.42 -213.51,-38.15 -51.88,-10.02 -103.68,-20.49 -155.42,-31.21 -25.86,-5.35 -51.78,-10.56 -77.58,-16.23 -20.65,-4.53 -39.56,-15.12 -60.01,-21.44 -22.75,-7.04 -45.53,-14.1 -67.6,-23.06 -42.08,-17.1 -87.74,-41.07 -121.84,-71.54 -11.97,-10.7 -30.52,-38.53 -23.98,-56.73 0.77,-2.15 359.11,-998.81 359.11,-998.81 4.26,-11.83 -4.36,-24.35 -16.92,-24.62 l -557.43,-11.83 c 0.08,0.03 25.74,19.86 19.43,90.08 -4.32,48.05 -13.96,95.59 -25.11,142.46 -11.66,48.98 -25.85,97.24 -40.42,145.41 l 141.02,20.46 c 43.35,6.29 67.75,51.56 51.13,94.86 l -127.64,332.62 c -6.25,16.3 -22.62,26.62 -39.01,24.58 l -164.42,-20.43 c -81,241.64 -174.04,479.21 -278.7,711.57 -12.56,-24.26 -25.3,-48.43 -38.11,-72.56 l -10,29.29 c 88.66,110.72 310.89,240.41 538.78,283.46" /><path
         id="path170"
         style="fill:#c1d0db;fill-opacity:1;fill-rule:nonzero;stroke:none"
         d="m 5813.56,5791.3 c 14.57,-48.17 28.76,-96.43 40.42,-145.41 11.15,-46.87 20.79,-94.41 25.11,-142.46 6.31,-70.22 -19.35,-90.05 -19.43,-90.08 l -125.19,366.47 79.09,11.48" /><path
         id="path172"
         style="fill:#c1d0db;fill-opacity:1;fill-rule:nonzero;stroke:none"
         d="m 5674.64,6243.39 -94.52,-11.74 -222.29,650.75 c 12.81,24.13 25.55,48.3 38.11,72.56 104.66,-232.36 197.7,-469.93 278.7,-711.57" /><path
         id="path174"
         style="fill:#e29530;fill-opacity:1;fill-rule:nonzero;stroke:none"
         d="m 4199.81,4666.14 c -5.45,-4.16 -10.9,-8.31 -16.35,-12.47 -321.67,-245.38 -640.74,-494.22 -954.12,-750.14 -6.27,-5.12 -12.54,-10.24 -18.8,-15.36 -154.97,-126.79 -308.55,-255.25 -462.53,-383.24 -80.05,-66.54 -160.22,-132.97 -240.75,-198.96 -86.56,-70.93 -140.19,-145.1 -262.35,-106.98 -109.03,34.03 -217.95,111.38 -289.54,199.41 -58.77,72.28 -97.66,156.88 -117,247.85 -20.89,98.22 -58.77,220.44 42.18,284.66 44.3,28.19 88.07,56.23 130.38,87.4 580.71,394.6 1195.59,806.65 1771.61,1214.19 l 417.27,-566.36" /><path
         id="path176"
         style="fill:#ffffff;fill-opacity:1;fill-rule:nonzero;stroke:none"
         d="m 2165.95,3787.96 c -72.32,-53.29 -87.75,-155.11 -34.47,-227.44 53.29,-72.32 155.12,-87.75 227.43,-34.46 72.33,53.28 87.76,155.11 34.48,227.43 -53.3,72.32 -155.12,87.75 -227.44,34.47" /><path
         id="path178"
         style="fill:#526879;fill-opacity:1;fill-rule:nonzero;stroke:none"
         d="m 4216.61,4892.34 c -22.27,0 -44.28,10.2 -58.57,29.59 l -127.09,172.49 c -23.81,32.32 -16.96,77.76 15.35,101.57 206.69,152.24 892.43,659.86 934.59,724.63 37.29,57.29 76.96,113.08 116.19,169.03 22.45,32 96.06,178.17 131.16,188.14 3.81,1.08 7.52,1.6 11.14,1.6 71.26,0 105.8,-200.8 122.55,-249.54 34.91,-101.61 68.49,-203.68 101.51,-305.94 10.31,-31.9 -12.42,-64.8 -45.9,-66.54 -74.04,-3.85 -194.59,-19.5 -284.09,-77.3 -115.44,-74.57 -685.68,-524.65 -871.85,-672.06 -13.36,-10.57 -29.24,-15.67 -44.99,-15.67" /><path
         id="path180"
         style="fill:#435b6e;fill-opacity:1;fill-rule:nonzero;stroke:none"
         d="m 2174.73,3778.15 c -68.71,-50.61 -83.42,-147.69 -32.8,-216.41 50.62,-68.7 147.71,-83.41 216.42,-32.79 68.7,50.63 83.41,147.71 32.79,216.41 -50.63,68.71 -147.71,83.42 -216.41,32.79 z m -10.84,14.72 c 76.82,56.6 185.36,40.14 241.97,-36.67 56.59,-76.82 40.14,-185.36 -36.67,-241.97 -76.82,-56.59 -185.38,-40.14 -241.97,36.67 -56.6,76.82 -40.14,185.37 36.67,241.97" /><path
         id="path182"
         style="fill:#ebceb1;fill-opacity:1;fill-rule:nonzero;stroke:none"
         d="m 3292.42,4587.35 89.98,-72.58 101.68,11.33 13.47,-19.99 -24.26,-17.22 87.23,-14.37 47.18,-53.4 -22.02,-91.29 -76.94,-60.37 -89.92,31.54 -73.74,85.03 -127.53,94.11 74.87,107.21" /><path
         id="path184"
         style="fill:#d1d9db;fill-opacity:1;fill-rule:nonzero;stroke:none"
         d="m 3387.99,4606.81 -813.98,809.53 c -28.09,27.93 -45.62,88.04 -63.61,122.75 -42.79,82.55 -85.56,165.09 -128.34,247.63 -29.26,56.45 -66.72,178.49 -123.05,212.4 -91.76,55.22 -222.76,-52.41 -267.7,-125.48 -137.91,-224.25 14.51,-447.81 98.67,-663.35 l 104.24,-169.64 1047.64,-660.13 146.13,226.29" /><path
         id="path186"
         style="fill:#3c6794;fill-opacity:1;fill-rule:nonzero;stroke:none"
         d="m 1867.55,6897.26 c 3.5,-100.35 45.05,-196.04 101.74,-277.26 29.27,7.14 56.24,21.87 82.73,36.71 119.08,66.71 236.5,139.33 335.96,234.74 99.46,95.42 180.74,225.02 219.99,331.77 -84.72,65.23 -216.88,97.48 -326.15,90.92 -199.37,-11.97 -421.97,-196.81 -414.27,-416.88" /><path
         id="path188"
         style="fill:#3c6794;fill-opacity:1;fill-rule:nonzero;stroke:none"
         d="m 2735.33,7476.06 c 37.28,14.4 83.03,25.12 114.31,0.26 37.06,-29.45 28.68,-87.57 11.93,-131.82 -56.43,-149.05 -169.96,-275.67 -312.01,-347.94 -61.59,-31.34 -177.9,-57.56 -205.86,33.49 -14.95,48.66 20.76,140.53 42.62,186.34 59.75,125.21 226.58,212.4 349.01,259.67" /><path
         id="path190"
         style="fill:#3c6794;fill-opacity:1;fill-rule:nonzero;stroke:none"
         d="m 8979.42,5135.72 -99.48,-0.52 c 3.51,53.35 7.02,106.69 10.53,160.03 5.25,79.92 10.55,160.13 26.51,238.61 25.34,124.67 77.79,243.75 152.65,346.61 -37.73,42.57 -109.22,49.48 -154.4,14.92 -33.23,-25.42 -49.76,-66.6 -63.49,-106.14 -50.87,-146.35 -84.18,-298.76 -99.33,-452.96 -5.8,-59.13 -20.05,-137.34 -14.31,-201.8 l -338.75,-1.77 c 4.34,65.95 8.68,131.91 13.02,197.86 5.25,79.91 10.55,160.12 26.5,238.61 15.89,78.11 42.42,154.04 78.42,225.14 33.88,66.92 68.6,150.43 132.9,188.99 -55.9,2.34 -112.22,-6.29 -164.85,-25.29 -61.7,-22.27 -91.09,-74.15 -111.7,-133.44 -50.87,-146.37 -84.18,-298.78 -99.33,-452.98 -6.87,-70.06 -25.73,-167.02 -8.95,-236.03 0.3,-1.26 0.53,-2.38 0.78,-3.55 l -86.83,-0.45 -282.09,-1128.65 h 1196.63 l -114.43,1132.81" /><path
         id="path192"
         style="fill:#ebceb1;fill-opacity:1;fill-rule:nonzero;stroke:none"
         d="m 7183.19,5044.1 -189.07,81.26 32.37,81.41 142.22,-27.29 -2.77,45.37 153.04,-89.02 -22.1,-89.03 -113.69,-2.7" /><path
         id="path194"
         style="fill:#d1d9db;fill-opacity:1;fill-rule:nonzero;stroke:none"
         d="m 9056.93,5612.28 c -14.39,7.84 -30.94,13.96 -49.63,17.95 -77.54,16.56 -159.74,-4.47 -229.74,-42.12 -110.81,-59.62 -203.61,-154.48 -306.95,-226.2 -118.21,-82.04 -236.41,-164.09 -354.63,-246.13 l -838.43,67.39 -34.69,-178.79 996.33,-274.48 c 151.61,116.52 299.32,230.97 457.12,337.18 141.47,95.21 313.42,168.69 403.21,320.62 50.69,85.79 36.51,181.45 -42.59,224.58" /><path
         id="path196"
         style="fill:#534741;fill-opacity:1;fill-rule:nonzero;stroke:none"
         d="m 8603.04,6532.1 c -27.89,44.12 -48.97,96.3 -80.24,132.69 -37.92,44.12 -102.69,67.1 -121.55,122.14 -22.98,67.05 18.09,143.67 80.05,171.18 37.29,16.55 79.24,19.66 119.99,17.45 20.23,-1.09 40.7,-3.51 59.42,-11.27 35.14,-14.55 61.45,-48.57 66.72,-86.24 3.76,-26.96 -2.38,-55.7 8.17,-80.81 35.13,-83.65 134.78,-95.14 210.44,-114.73 77.29,-20.01 149.01,-23.29 215.67,-74.08 103.35,-78.73 140.23,-228.49 98.19,-351.42 -42.04,-122.93 -154.02,-215.59 -279.69,-248.57 -70.59,-18.52 -11.47,34.93 6.26,52.06 35.32,34.14 65.74,76.28 81.87,122.95 20.91,60.52 14.51,133.47 -28.78,180.65 -38.22,41.65 -96.8,56.63 -152.1,68.36 -34.86,7.39 -73.17,19.79 -108.96,19.32 -25.02,-0.32 -45.57,-6.69 -71.12,-1.83 -48.58,9.24 -79.22,42.42 -104.34,82.15" /><path
         id="path198"
         style="fill:#3c6794;fill-opacity:1;fill-rule:nonzero;stroke:none"
         d="m 9302.85,5944.98 c 23.77,-23.62 54.96,-47.33 87.52,-39.46 22.12,5.35 38.72,24.88 46.16,46.38 7.43,21.5 7.08,44.87 5.37,67.56 -10.55,139.87 -71.13,275.44 -168.28,376.62 -18.56,19.33 -42.17,38.75 -68.77,35.55 -37.1,-4.47 -61.9,-54.53 -77.1,-84.34 -11.87,-23.28 33.48,-53.86 44.3,-78.39 13.14,-29.8 16.72,-64.09 8.05,-95.65 -7.34,-26.72 -9.52,-49.98 3.73,-76.17 28.34,-56.03 74.81,-108.19 119.02,-152.1" /><path
         id="path200"
         style="fill:#3c6794;fill-opacity:1;fill-rule:nonzero;stroke:none"
         d="m 8930.38,6591.62 c 42.22,-41.38 83.31,-84.16 118.72,-131.5 68.43,-91.46 102.04,-195.12 153.74,-295 27.63,-53.36 61.43,-14.25 94.82,20.18 33.87,34.93 60.07,77.38 75.42,123.58 26.33,79.24 20.46,168.67 -15.99,243.79 -29.9,61.6 -78.3,111.95 -125.91,161.16 -62.92,65.07 -167.44,95.31 -257.87,93.57 -42.08,-0.81 -155.61,-16.86 -173.45,-65.05 -16.2,-43.79 102.13,-122.92 130.52,-150.73" /></g></g></svg>